G04 start of page 12 for group -3984 idx -3984 *
G04 Title: Nomech, fab *
G04 Creator: pcb 20110918 *
G04 CreationDate: Sun 08 Sep 2013 10:57:53 PM GMT UTC *
G04 For: bertho *
G04 Format: Gerber/RS-274X *
G04 PCB-Dimensions: 430000 350000 *
G04 PCB-Coordinate-Origin: lower left *
%MOIN*%
%FSLAX25Y25*%
%LNFAB*%
%ADD206C,0.0050*%
%ADD205C,0.0040*%
%ADD204C,0.0100*%
%ADD203C,0.0075*%
%ADD202C,0.0060*%
%ADD201C,0.0080*%
G54D201*X386800Y42700D02*X389200Y40300D01*
X386800D02*X389200Y42700D01*
X24300D02*X26700Y40300D01*
X24300D02*X26700Y42700D01*
X24300Y325700D02*X26700Y323300D01*
X24300D02*X26700Y325700D01*
X386800D02*X389200Y323300D01*
X386800D02*X389200Y325700D01*
X13800Y377450D02*X16200Y375050D01*
X13800D02*X16200Y377450D01*
G54D202*X135000Y378500D02*X136500Y375500D01*
X138000Y378500D01*
X136500Y375500D02*Y372500D01*
X139800Y375800D02*X142050D01*
X139800Y372500D02*X142800D01*
X139800Y378500D02*Y372500D01*
Y378500D02*X142800D01*
X147600D02*X148350Y377750D01*
X145350Y378500D02*X147600D01*
X144600Y377750D02*X145350Y378500D01*
X144600Y377750D02*Y376250D01*
X145350Y375500D01*
X147600D01*
X148350Y374750D01*
Y373250D01*
X147600Y372500D02*X148350Y373250D01*
X145350Y372500D02*X147600D01*
X144600Y373250D02*X145350Y372500D01*
X98000Y374750D02*X101000Y378500D01*
X98000Y374750D02*X101750D01*
X101000Y378500D02*Y372500D01*
X45000Y373250D02*X45750Y372500D01*
X45000Y377750D02*Y373250D01*
Y377750D02*X45750Y378500D01*
X47250D01*
X48000Y377750D01*
Y373250D01*
X47250Y372500D02*X48000Y373250D01*
X45750Y372500D02*X47250D01*
X45000Y374000D02*X48000Y377000D01*
X49800Y372500D02*X50550D01*
X52350Y377300D02*X53550Y378500D01*
Y372500D01*
X52350D02*X54600D01*
X56400Y377750D02*X57150Y378500D01*
X59400D01*
X60150Y377750D01*
Y376250D01*
X56400Y372500D02*X60150Y376250D01*
X56400Y372500D02*X60150D01*
X64200Y378500D02*X64950Y377750D01*
X62700Y378500D02*X64200D01*
X61950Y377750D02*X62700Y378500D01*
X61950Y377750D02*Y373250D01*
X62700Y372500D01*
X64200Y375800D02*X64950Y375050D01*
X61950Y375800D02*X64200D01*
X62700Y372500D02*X64200D01*
X64950Y373250D01*
Y375050D02*Y373250D01*
X67000Y218600D02*Y215400D01*
X65400Y217000D02*X68600D01*
X135000Y218600D02*Y215400D01*
X133400Y217000D02*X136600D01*
X203000Y218600D02*Y215400D01*
X201400Y217000D02*X204600D01*
X271000Y218600D02*Y215400D01*
X269400Y217000D02*X272600D01*
X67000Y150600D02*Y147400D01*
X65400Y149000D02*X68600D01*
X135000Y150600D02*Y147400D01*
X133400Y149000D02*X136600D01*
X203000Y150600D02*Y147400D01*
X201400Y149000D02*X204600D01*
X271000Y150600D02*Y147400D01*
X269400Y149000D02*X272600D01*
X271000Y82600D02*Y79400D01*
X269400Y81000D02*X272600D01*
X67000Y286600D02*Y283400D01*
X65400Y285000D02*X68600D01*
X67000Y82600D02*Y79400D01*
X65400Y81000D02*X68600D01*
X135000Y286600D02*Y283400D01*
X133400Y285000D02*X136600D01*
X135000Y82600D02*Y79400D01*
X133400Y81000D02*X136600D01*
X203000Y286600D02*Y283400D01*
X201400Y285000D02*X204600D01*
X203000Y82600D02*Y79400D01*
X201400Y81000D02*X204600D01*
X271000Y286600D02*Y283400D01*
X269400Y285000D02*X272600D01*
X15000Y392850D02*Y389650D01*
X13400Y391250D02*X16600D01*
X135000Y393500D02*X136500Y390500D01*
X138000Y393500D01*
X136500Y390500D02*Y387500D01*
X139800Y390800D02*X142050D01*
X139800Y387500D02*X142800D01*
X139800Y393500D02*Y387500D01*
Y393500D02*X142800D01*
X147600D02*X148350Y392750D01*
X145350Y393500D02*X147600D01*
X144600Y392750D02*X145350Y393500D01*
X144600Y392750D02*Y391250D01*
X145350Y390500D01*
X147600D01*
X148350Y389750D01*
Y388250D01*
X147600Y387500D02*X148350Y388250D01*
X145350Y387500D02*X147600D01*
X144600Y388250D02*X145350Y387500D01*
X98000Y392300D02*X99200Y393500D01*
Y387500D01*
X98000D02*X100250D01*
X104300Y393500D02*X105050Y392750D01*
X102800Y393500D02*X104300D01*
X102050Y392750D02*X102800Y393500D01*
X102050Y392750D02*Y388250D01*
X102800Y387500D01*
X104300Y390800D02*X105050Y390050D01*
X102050Y390800D02*X104300D01*
X102800Y387500D02*X104300D01*
X105050Y388250D01*
Y390050D02*Y388250D01*
X45000D02*X45750Y387500D01*
X45000Y392750D02*Y388250D01*
Y392750D02*X45750Y393500D01*
X47250D01*
X48000Y392750D01*
Y388250D01*
X47250Y387500D02*X48000Y388250D01*
X45750Y387500D02*X47250D01*
X45000Y389000D02*X48000Y392000D01*
X49800Y387500D02*X50550D01*
X52350Y388250D02*X53100Y387500D01*
X52350Y392750D02*Y388250D01*
Y392750D02*X53100Y393500D01*
X54600D01*
X55350Y392750D01*
Y388250D01*
X54600Y387500D02*X55350Y388250D01*
X53100Y387500D02*X54600D01*
X52350Y389000D02*X55350Y392000D01*
X57900Y387500D02*X60900Y393500D01*
X57150D02*X60900D01*
X63450Y387500D02*X65700Y390500D01*
Y392750D02*Y390500D01*
X64950Y393500D02*X65700Y392750D01*
X63450Y393500D02*X64950D01*
X62700Y392750D02*X63450Y393500D01*
X62700Y392750D02*Y391250D01*
X63450Y390500D01*
X65700D01*
X87000Y217000D02*Y215400D01*
Y217000D02*X88387Y217800D01*
X87000Y217000D02*X85613Y217800D01*
X115000Y217000D02*Y215400D01*
Y217000D02*X116387Y217800D01*
X115000Y217000D02*X113613Y217800D01*
X87000Y149000D02*Y147400D01*
Y149000D02*X88387Y149800D01*
X87000Y149000D02*X85613Y149800D01*
X115000Y149000D02*Y147400D01*
Y149000D02*X116387Y149800D01*
X115000Y149000D02*X113613Y149800D01*
X87000Y81000D02*Y79400D01*
Y81000D02*X88387Y81800D01*
X87000Y81000D02*X85613Y81800D01*
X115000Y81000D02*Y79400D01*
Y81000D02*X116387Y81800D01*
X115000Y81000D02*X113613Y81800D01*
X155000Y81000D02*Y79400D01*
Y81000D02*X156387Y81800D01*
X155000Y81000D02*X153613Y81800D01*
X183000Y81000D02*Y79400D01*
Y81000D02*X184387Y81800D01*
X183000Y81000D02*X181613Y81800D01*
X223000Y81000D02*Y79400D01*
Y81000D02*X224387Y81800D01*
X223000Y81000D02*X221613Y81800D01*
X251000Y81000D02*Y79400D01*
Y81000D02*X252387Y81800D01*
X251000Y81000D02*X249613Y81800D01*
X155000Y149000D02*Y147400D01*
Y149000D02*X156387Y149800D01*
X155000Y149000D02*X153613Y149800D01*
X183000Y149000D02*Y147400D01*
Y149000D02*X184387Y149800D01*
X183000Y149000D02*X181613Y149800D01*
X223000Y149000D02*Y147400D01*
Y149000D02*X224387Y149800D01*
X223000Y149000D02*X221613Y149800D01*
X251000Y149000D02*Y147400D01*
Y149000D02*X252387Y149800D01*
X251000Y149000D02*X249613Y149800D01*
X155000Y217000D02*Y215400D01*
Y217000D02*X156387Y217800D01*
X155000Y217000D02*X153613Y217800D01*
X183000Y217000D02*Y215400D01*
Y217000D02*X184387Y217800D01*
X183000Y217000D02*X181613Y217800D01*
X223000Y217000D02*Y215400D01*
Y217000D02*X224387Y217800D01*
X223000Y217000D02*X221613Y217800D01*
X251000Y217000D02*Y215400D01*
Y217000D02*X252387Y217800D01*
X251000Y217000D02*X249613Y217800D01*
X87000Y285000D02*Y283400D01*
Y285000D02*X88387Y285800D01*
X87000Y285000D02*X85613Y285800D01*
X115000Y285000D02*Y283400D01*
Y285000D02*X116387Y285800D01*
X115000Y285000D02*X113613Y285800D01*
X155000Y285000D02*Y283400D01*
Y285000D02*X156387Y285800D01*
X155000Y285000D02*X153613Y285800D01*
X183000Y285000D02*Y283400D01*
Y285000D02*X184387Y285800D01*
X183000Y285000D02*X181613Y285800D01*
X223000Y285000D02*Y283400D01*
Y285000D02*X224387Y285800D01*
X223000Y285000D02*X221613Y285800D01*
X251000Y285000D02*Y283400D01*
Y285000D02*X252387Y285800D01*
X251000Y285000D02*X249613Y285800D01*
X381500Y188500D02*Y186900D01*
Y188500D02*X382887Y189300D01*
X381500Y188500D02*X380113Y189300D01*
X393000Y204500D02*Y202900D01*
Y204500D02*X394387Y205300D01*
X393000Y204500D02*X391613Y205300D01*
X364500Y191000D02*Y189400D01*
Y191000D02*X365887Y191800D01*
X364500Y191000D02*X363113Y191800D01*
X337000Y191000D02*Y189400D01*
Y191000D02*X338387Y191800D01*
X337000Y191000D02*X335613Y191800D01*
X388000Y231000D02*Y229400D01*
Y231000D02*X389387Y231800D01*
X388000Y231000D02*X386613Y231800D01*
X331000Y191000D02*Y189400D01*
Y191000D02*X332387Y191800D01*
X331000Y191000D02*X329613Y191800D01*
X353500Y183500D02*Y181900D01*
Y183500D02*X354887Y184300D01*
X353500Y183500D02*X352113Y184300D01*
X324500Y255500D02*Y253900D01*
Y255500D02*X325887Y256300D01*
X324500Y255500D02*X323113Y256300D01*
X361500Y266500D02*Y264900D01*
Y266500D02*X362887Y267300D01*
X361500Y266500D02*X360113Y267300D01*
X352000Y262000D02*Y260400D01*
Y262000D02*X353387Y262800D01*
X352000Y262000D02*X350613Y262800D01*
X355000Y278000D02*Y276400D01*
Y278000D02*X356387Y278800D01*
X355000Y278000D02*X353613Y278800D01*
X337000Y284000D02*Y282400D01*
Y284000D02*X338387Y284800D01*
X337000Y284000D02*X335613Y284800D01*
X237000Y320000D02*Y318400D01*
Y320000D02*X238387Y320800D01*
X237000Y320000D02*X235613Y320800D01*
X169000Y320000D02*Y318400D01*
Y320000D02*X170387Y320800D01*
X169000Y320000D02*X167613Y320800D01*
X101000Y320000D02*Y318400D01*
Y320000D02*X102387Y320800D01*
X101000Y320000D02*X99613Y320800D01*
X329000Y260500D02*Y258900D01*
Y260500D02*X330387Y261300D01*
X329000Y260500D02*X327613Y261300D01*
X33000Y299500D02*Y297900D01*
Y299500D02*X34387Y300300D01*
X33000Y299500D02*X31613Y300300D01*
X232000Y186500D02*Y184900D01*
Y186500D02*X233387Y187300D01*
X232000Y186500D02*X230613Y187300D01*
X291000Y101000D02*Y99400D01*
Y101000D02*X292387Y101800D01*
X291000Y101000D02*X289613Y101800D01*
X291000Y140000D02*Y138400D01*
Y140000D02*X292387Y140800D01*
X291000Y140000D02*X289613Y140800D01*
X291000Y265000D02*Y263400D01*
Y265000D02*X292387Y265800D01*
X291000Y265000D02*X289613Y265800D01*
X291000Y197000D02*Y195400D01*
Y197000D02*X292387Y197800D01*
X291000Y197000D02*X289613Y197800D01*
X298500Y213000D02*Y211400D01*
Y213000D02*X299887Y213800D01*
X298500Y213000D02*X297113Y213800D01*
X340000Y212500D02*Y210900D01*
Y212500D02*X341387Y213300D01*
X340000Y212500D02*X338613Y213300D01*
X364500Y176000D02*Y174400D01*
Y176000D02*X365887Y176800D01*
X364500Y176000D02*X363113Y176800D01*
X389000Y138000D02*Y136400D01*
Y138000D02*X390387Y138800D01*
X389000Y138000D02*X387613Y138800D01*
X343500Y235500D02*Y233900D01*
Y235500D02*X344887Y236300D01*
X343500Y235500D02*X342113Y236300D01*
X358000Y218500D02*Y216900D01*
Y218500D02*X359387Y219300D01*
X358000Y218500D02*X356613Y219300D01*
X375000Y258500D02*Y256900D01*
Y258500D02*X376387Y259300D01*
X375000Y258500D02*X373613Y259300D01*
X399000Y310000D02*Y308400D01*
Y310000D02*X400387Y310800D01*
X399000Y310000D02*X397613Y310800D01*
X332000Y331500D02*Y329900D01*
Y331500D02*X333387Y332300D01*
X332000Y331500D02*X330613Y332300D01*
X353500Y316000D02*Y314400D01*
Y316000D02*X354887Y316800D01*
X353500Y316000D02*X352113Y316800D01*
X391000Y272500D02*Y270900D01*
Y272500D02*X392387Y273300D01*
X391000Y272500D02*X389613Y273300D01*
X392500Y244000D02*Y242400D01*
Y244000D02*X393887Y244800D01*
X392500Y244000D02*X391113Y244800D01*
X382000Y157000D02*Y155400D01*
Y157000D02*X383387Y157800D01*
X382000Y157000D02*X380613Y157800D01*
X397500Y100500D02*Y98900D01*
Y100500D02*X398887Y101300D01*
X397500Y100500D02*X396113Y101300D01*
X373000Y71000D02*Y69400D01*
Y71000D02*X374387Y71800D01*
X373000Y71000D02*X371613Y71800D01*
X323000Y68000D02*Y66400D01*
Y68000D02*X324387Y68800D01*
X323000Y68000D02*X321613Y68800D01*
X325000Y40500D02*Y38900D01*
Y40500D02*X326387Y41300D01*
X325000Y40500D02*X323613Y41300D01*
X349500Y49000D02*Y47400D01*
Y49000D02*X350887Y49800D01*
X349500Y49000D02*X348113Y49800D01*
X349500Y84000D02*Y82400D01*
Y84000D02*X350887Y84800D01*
X349500Y84000D02*X348113Y84800D01*
X400000Y128500D02*Y126900D01*
Y128500D02*X401387Y129300D01*
X400000Y128500D02*X398613Y129300D01*
X163500Y249500D02*Y247900D01*
Y249500D02*X164887Y250300D01*
X163500Y249500D02*X162113Y250300D01*
X95500Y252500D02*Y250900D01*
Y252500D02*X96887Y253300D01*
X95500Y252500D02*X94113Y253300D01*
X372500Y266500D02*Y264900D01*
Y266500D02*X373887Y267300D01*
X372500Y266500D02*X371113Y267300D01*
X389000Y260000D02*Y258400D01*
Y260000D02*X390387Y260800D01*
X389000Y260000D02*X387613Y260800D01*
X353000Y298500D02*Y296900D01*
Y298500D02*X354387Y299300D01*
X353000Y298500D02*X351613Y299300D01*
X374000Y200000D02*Y198400D01*
Y200000D02*X375387Y200800D01*
X374000Y200000D02*X372613Y200800D01*
X398000Y301500D02*Y299900D01*
Y301500D02*X399387Y302300D01*
X398000Y301500D02*X396613Y302300D01*
X386500Y281500D02*Y279900D01*
Y281500D02*X387887Y282300D01*
X386500Y281500D02*X385113Y282300D01*
X367500Y273000D02*Y271400D01*
Y273000D02*X368887Y273800D01*
X367500Y273000D02*X366113Y273800D01*
X317000Y269000D02*Y267400D01*
Y269000D02*X318387Y269800D01*
X317000Y269000D02*X315613Y269800D01*
X317000Y273000D02*Y271400D01*
Y273000D02*X318387Y273800D01*
X317000Y273000D02*X315613Y273800D01*
X319500Y298000D02*Y296400D01*
Y298000D02*X320887Y298800D01*
X319500Y298000D02*X318113Y298800D01*
X316500Y295000D02*Y293400D01*
Y295000D02*X317887Y295800D01*
X316500Y295000D02*X315113Y295800D01*
X328500Y298500D02*Y296900D01*
Y298500D02*X329887Y299300D01*
X328500Y298500D02*X327113Y299300D01*
X334500Y295000D02*Y293400D01*
Y295000D02*X335887Y295800D01*
X334500Y295000D02*X333113Y295800D01*
X337500Y298000D02*Y296400D01*
Y298000D02*X338887Y298800D01*
X337500Y298000D02*X336113Y298800D01*
X319500Y313000D02*Y311400D01*
Y313000D02*X320887Y313800D01*
X319500Y313000D02*X318113Y313800D01*
X328500Y313000D02*Y311400D01*
Y313000D02*X329887Y313800D01*
X328500Y313000D02*X327113Y313800D01*
X337500Y313000D02*Y311400D01*
Y313000D02*X338887Y313800D01*
X337500Y313000D02*X336113Y313800D01*
X346000Y313000D02*Y311400D01*
Y313000D02*X347387Y313800D01*
X346000Y313000D02*X344613Y313800D01*
X357000Y324500D02*Y322900D01*
Y324500D02*X358387Y325300D01*
X357000Y324500D02*X355613Y325300D01*
X367000Y324500D02*Y322900D01*
Y324500D02*X368387Y325300D01*
X367000Y324500D02*X365613Y325300D01*
X356000Y132000D02*Y130400D01*
Y132000D02*X357387Y132800D01*
X356000Y132000D02*X354613Y132800D01*
X360000Y168000D02*Y166400D01*
Y168000D02*X361387Y168800D01*
X360000Y168000D02*X358613Y168800D01*
X360000Y148500D02*Y146900D01*
Y148500D02*X361387Y149300D01*
X360000Y148500D02*X358613Y149300D01*
X400000Y204500D02*Y202900D01*
Y204500D02*X401387Y205300D01*
X400000Y204500D02*X398613Y205300D01*
X382000Y238500D02*Y236900D01*
Y238500D02*X383387Y239300D01*
X382000Y238500D02*X380613Y239300D01*
X379500Y215000D02*Y213400D01*
Y215000D02*X380887Y215800D01*
X379500Y215000D02*X378113Y215800D01*
X377000Y117500D02*Y115900D01*
Y117500D02*X378387Y118300D01*
X377000Y117500D02*X375613Y118300D01*
X318000Y284500D02*Y282900D01*
Y284500D02*X319387Y285300D01*
X318000Y284500D02*X316613Y285300D01*
X356000Y271500D02*Y269900D01*
Y271500D02*X357387Y272300D01*
X356000Y271500D02*X354613Y272300D01*
X314500Y168000D02*Y166400D01*
Y168000D02*X315887Y168800D01*
X314500Y168000D02*X313113Y168800D01*
X314500Y147000D02*Y145400D01*
Y147000D02*X315887Y147800D01*
X314500Y147000D02*X313113Y147800D01*
X314500Y126000D02*Y124400D01*
Y126000D02*X315887Y126800D01*
X314500Y126000D02*X313113Y126800D01*
X314500Y105000D02*Y103400D01*
Y105000D02*X315887Y105800D01*
X314500Y105000D02*X313113Y105800D01*
X332500Y186000D02*Y184400D01*
Y186000D02*X333887Y186800D01*
X332500Y186000D02*X331113Y186800D01*
X351500Y117000D02*Y115400D01*
Y117000D02*X352887Y117800D01*
X351500Y117000D02*X350113Y117800D01*
X369000Y212000D02*Y210400D01*
Y212000D02*X370387Y212800D01*
X369000Y212000D02*X367613Y212800D01*
X380000Y209000D02*Y207400D01*
Y209000D02*X381387Y209800D01*
X380000Y209000D02*X378613Y209800D01*
X73000Y325000D02*Y323400D01*
Y325000D02*X74387Y325800D01*
X73000Y325000D02*X71613Y325800D01*
X67000Y329000D02*Y327400D01*
Y329000D02*X68387Y329800D01*
X67000Y329000D02*X65613Y329800D01*
X33000Y257500D02*Y255900D01*
Y257500D02*X34387Y258300D01*
X33000Y257500D02*X31613Y258300D01*
X101000Y257500D02*Y255900D01*
Y257500D02*X102387Y258300D01*
X101000Y257500D02*X99613Y258300D01*
X169000Y257500D02*Y255900D01*
Y257500D02*X170387Y258300D01*
X169000Y257500D02*X167613Y258300D01*
X237000Y257500D02*Y255900D01*
Y257500D02*X238387Y258300D01*
X237000Y257500D02*X235613Y258300D01*
X33000Y189500D02*Y187900D01*
Y189500D02*X34387Y190300D01*
X33000Y189500D02*X31613Y190300D01*
X101000Y189500D02*Y187900D01*
Y189500D02*X102387Y190300D01*
X101000Y189500D02*X99613Y190300D01*
X169000Y189500D02*Y187900D01*
Y189500D02*X170387Y190300D01*
X169000Y189500D02*X167613Y190300D01*
X33000Y121500D02*Y119900D01*
Y121500D02*X34387Y122300D01*
X33000Y121500D02*X31613Y122300D01*
X101000Y121500D02*Y119900D01*
Y121500D02*X102387Y122300D01*
X101000Y121500D02*X99613Y122300D01*
X169000Y121500D02*Y119900D01*
Y121500D02*X170387Y122300D01*
X169000Y121500D02*X167613Y122300D01*
X237000Y121500D02*Y119900D01*
Y121500D02*X238387Y122300D01*
X237000Y121500D02*X235613Y122300D01*
X237000Y53500D02*Y51900D01*
Y53500D02*X238387Y54300D01*
X237000Y53500D02*X235613Y54300D01*
X169000Y53500D02*Y51900D01*
Y53500D02*X170387Y54300D01*
X169000Y53500D02*X167613Y54300D01*
X101000Y53500D02*Y51900D01*
Y53500D02*X102387Y54300D01*
X101000Y53500D02*X99613Y54300D01*
X33000Y57000D02*Y55400D01*
Y57000D02*X34387Y57800D01*
X33000Y57000D02*X31613Y57800D01*
X237000Y190000D02*Y188400D01*
Y190000D02*X238387Y190800D01*
X237000Y190000D02*X235613Y190800D01*
X307500Y193000D02*Y191400D01*
Y193000D02*X308887Y193800D01*
X307500Y193000D02*X306113Y193800D01*
X310000Y199500D02*Y197900D01*
Y199500D02*X311387Y200300D01*
X310000Y199500D02*X308613Y200300D01*
X15000Y406250D02*Y404650D01*
Y406250D02*X16387Y407050D01*
X15000Y406250D02*X13613Y407050D01*
X135000Y408500D02*X136500Y405500D01*
X138000Y408500D01*
X136500Y405500D02*Y402500D01*
X139800Y405800D02*X142050D01*
X139800Y402500D02*X142800D01*
X139800Y408500D02*Y402500D01*
Y408500D02*X142800D01*
X147600D02*X148350Y407750D01*
X145350Y408500D02*X147600D01*
X144600Y407750D02*X145350Y408500D01*
X144600Y407750D02*Y406250D01*
X145350Y405500D01*
X147600D01*
X148350Y404750D01*
Y403250D01*
X147600Y402500D02*X148350Y403250D01*
X145350Y402500D02*X147600D01*
X144600Y403250D02*X145350Y402500D01*
X98000Y407300D02*X99200Y408500D01*
Y402500D01*
X98000D02*X100250D01*
X102050Y407750D02*X102800Y408500D01*
X105050D01*
X105800Y407750D01*
Y406250D01*
X102050Y402500D02*X105800Y406250D01*
X102050Y402500D02*X105800D01*
X107600Y408500D02*X110600D01*
X107600D02*Y405500D01*
X108350Y406250D01*
X109850D01*
X110600Y405500D01*
Y403250D01*
X109850Y402500D02*X110600Y403250D01*
X108350Y402500D02*X109850D01*
X107600Y403250D02*X108350Y402500D01*
X45000Y403250D02*X45750Y402500D01*
X45000Y407750D02*Y403250D01*
Y407750D02*X45750Y408500D01*
X47250D01*
X48000Y407750D01*
Y403250D01*
X47250Y402500D02*X48000Y403250D01*
X45750Y402500D02*X47250D01*
X45000Y404000D02*X48000Y407000D01*
X49800Y402500D02*X50550D01*
X52350Y403250D02*X53100Y402500D01*
X52350Y407750D02*Y403250D01*
Y407750D02*X53100Y408500D01*
X54600D01*
X55350Y407750D01*
Y403250D01*
X54600Y402500D02*X55350Y403250D01*
X53100Y402500D02*X54600D01*
X52350Y404000D02*X55350Y407000D01*
X57150Y407300D02*X58350Y408500D01*
Y402500D01*
X57150D02*X59400D01*
X61200Y407750D02*X61950Y408500D01*
X64200D01*
X64950Y407750D01*
Y406250D01*
X61200Y402500D02*X64950Y406250D01*
X61200Y402500D02*X64950D01*
X3000Y423500D02*X3750Y422750D01*
X750Y423500D02*X3000D01*
X0Y422750D02*X750Y423500D01*
X0Y422750D02*Y421250D01*
X750Y420500D01*
X3000D01*
X3750Y419750D01*
Y418250D01*
X3000Y417500D02*X3750Y418250D01*
X750Y417500D02*X3000D01*
X0Y418250D02*X750Y417500D01*
X5550Y420500D02*Y418250D01*
X6300Y417500D01*
X8550Y420500D02*Y416000D01*
X7800Y415250D02*X8550Y416000D01*
X6300Y415250D02*X7800D01*
X5550Y416000D02*X6300Y415250D01*
Y417500D02*X7800D01*
X8550Y418250D01*
X11100Y419750D02*Y417500D01*
Y419750D02*X11850Y420500D01*
X12600D01*
X13350Y419750D01*
Y417500D01*
Y419750D02*X14100Y420500D01*
X14850D01*
X15600Y419750D01*
Y417500D01*
X10350Y420500D02*X11100Y419750D01*
X17400Y423500D02*Y417500D01*
Y418250D02*X18150Y417500D01*
X19650D01*
X20400Y418250D01*
Y419750D02*Y418250D01*
X19650Y420500D02*X20400Y419750D01*
X18150Y420500D02*X19650D01*
X17400Y419750D02*X18150Y420500D01*
X22200Y419750D02*Y418250D01*
Y419750D02*X22950Y420500D01*
X24450D01*
X25200Y419750D01*
Y418250D01*
X24450Y417500D02*X25200Y418250D01*
X22950Y417500D02*X24450D01*
X22200Y418250D02*X22950Y417500D01*
X27000Y423500D02*Y418250D01*
X27750Y417500D01*
X0Y414250D02*X29250D01*
X41750Y423500D02*Y417500D01*
X43700Y423500D02*X44750Y422450D01*
Y418550D01*
X43700Y417500D02*X44750Y418550D01*
X41000Y417500D02*X43700D01*
X41000Y423500D02*X43700D01*
G54D203*X46550Y422000D02*Y421850D01*
G54D202*Y419750D02*Y417500D01*
X50300Y420500D02*X51050Y419750D01*
X48800Y420500D02*X50300D01*
X48050Y419750D02*X48800Y420500D01*
X48050Y419750D02*Y418250D01*
X48800Y417500D01*
X51050Y420500D02*Y418250D01*
X51800Y417500D01*
X48800D02*X50300D01*
X51050Y418250D01*
X54350Y419750D02*Y417500D01*
Y419750D02*X55100Y420500D01*
X55850D01*
X56600Y419750D01*
Y417500D01*
Y419750D02*X57350Y420500D01*
X58100D01*
X58850Y419750D01*
Y417500D01*
X53600Y420500D02*X54350Y419750D01*
X60650Y417500D02*X61400D01*
X65900Y418250D02*X66650Y417500D01*
X65900Y422750D02*X66650Y423500D01*
X65900Y422750D02*Y418250D01*
X68450Y423500D02*X69950D01*
X69200D02*Y417500D01*
X68450D02*X69950D01*
X72500Y419750D02*Y417500D01*
Y419750D02*X73250Y420500D01*
X74000D01*
X74750Y419750D01*
Y417500D01*
X71750Y420500D02*X72500Y419750D01*
X77300Y420500D02*X79550D01*
X76550Y419750D02*X77300Y420500D01*
X76550Y419750D02*Y418250D01*
X77300Y417500D01*
X79550D01*
X81350Y423500D02*Y417500D01*
Y419750D02*X82100Y420500D01*
X83600D01*
X84350Y419750D01*
Y417500D01*
X86150Y423500D02*X86900Y422750D01*
Y418250D01*
X86150Y417500D02*X86900Y418250D01*
X41000Y414250D02*X88700D01*
X96050Y417500D02*X98000D01*
X95000Y418550D02*X96050Y417500D01*
X95000Y422450D02*Y418550D01*
Y422450D02*X96050Y423500D01*
X98000D01*
X99800Y419750D02*Y418250D01*
Y419750D02*X100550Y420500D01*
X102050D01*
X102800Y419750D01*
Y418250D01*
X102050Y417500D02*X102800Y418250D01*
X100550Y417500D02*X102050D01*
X99800Y418250D02*X100550Y417500D01*
X104600Y420500D02*Y418250D01*
X105350Y417500D01*
X106850D01*
X107600Y418250D01*
Y420500D02*Y418250D01*
X110150Y419750D02*Y417500D01*
Y419750D02*X110900Y420500D01*
X111650D01*
X112400Y419750D01*
Y417500D01*
X109400Y420500D02*X110150Y419750D01*
X114950Y423500D02*Y418250D01*
X115700Y417500D01*
X114200Y421250D02*X115700D01*
X95000Y414250D02*X117200D01*
X130750Y423500D02*Y417500D01*
X130000Y423500D02*X133000D01*
X133750Y422750D01*
Y421250D01*
X133000Y420500D02*X133750Y421250D01*
X130750Y420500D02*X133000D01*
X135550Y423500D02*Y418250D01*
X136300Y417500D01*
X140050Y420500D02*X140800Y419750D01*
X138550Y420500D02*X140050D01*
X137800Y419750D02*X138550Y420500D01*
X137800Y419750D02*Y418250D01*
X138550Y417500D01*
X140800Y420500D02*Y418250D01*
X141550Y417500D01*
X138550D02*X140050D01*
X140800Y418250D01*
X144100Y423500D02*Y418250D01*
X144850Y417500D01*
X143350Y421250D02*X144850D01*
X147100Y417500D02*X149350D01*
X146350Y418250D02*X147100Y417500D01*
X146350Y419750D02*Y418250D01*
Y419750D02*X147100Y420500D01*
X148600D01*
X149350Y419750D01*
X146350Y419000D02*X149350D01*
Y419750D02*Y419000D01*
X154150Y423500D02*Y417500D01*
X153400D02*X154150Y418250D01*
X151900Y417500D02*X153400D01*
X151150Y418250D02*X151900Y417500D01*
X151150Y419750D02*Y418250D01*
Y419750D02*X151900Y420500D01*
X153400D01*
X154150Y419750D01*
X157450Y420500D02*Y419750D01*
Y418250D02*Y417500D01*
X155950Y422750D02*Y422000D01*
Y422750D02*X156700Y423500D01*
X158200D01*
X158950Y422750D01*
Y422000D01*
X157450Y420500D02*X158950Y422000D01*
X130000Y414250D02*X160750D01*
X0Y438500D02*X3000D01*
X1500D02*Y432500D01*
X4800Y438500D02*Y432500D01*
Y434750D02*X5550Y435500D01*
X7050D01*
X7800Y434750D01*
Y432500D01*
X10350D02*X12600D01*
X9600Y433250D02*X10350Y432500D01*
X9600Y434750D02*Y433250D01*
Y434750D02*X10350Y435500D01*
X11850D01*
X12600Y434750D01*
X9600Y434000D02*X12600D01*
Y434750D02*Y434000D01*
X15150Y434750D02*Y432500D01*
Y434750D02*X15900Y435500D01*
X17400D01*
X14400D02*X15150Y434750D01*
X19950Y432500D02*X22200D01*
X19200Y433250D02*X19950Y432500D01*
X19200Y434750D02*Y433250D01*
Y434750D02*X19950Y435500D01*
X21450D01*
X22200Y434750D01*
X19200Y434000D02*X22200D01*
Y434750D02*Y434000D01*
X28950Y435500D02*X29700Y434750D01*
X27450Y435500D02*X28950D01*
X26700Y434750D02*X27450Y435500D01*
X26700Y434750D02*Y433250D01*
X27450Y432500D01*
X29700Y435500D02*Y433250D01*
X30450Y432500D01*
X27450D02*X28950D01*
X29700Y433250D01*
X33000Y434750D02*Y432500D01*
Y434750D02*X33750Y435500D01*
X35250D01*
X32250D02*X33000Y434750D01*
X37800Y432500D02*X40050D01*
X37050Y433250D02*X37800Y432500D01*
X37050Y434750D02*Y433250D01*
Y434750D02*X37800Y435500D01*
X39300D01*
X40050Y434750D01*
X37050Y434000D02*X40050D01*
Y434750D02*Y434000D01*
X44550Y437750D02*X45300Y438500D01*
X46800D01*
X47550Y437750D01*
X46800Y432500D02*X47550Y433250D01*
X45300Y432500D02*X46800D01*
X44550Y433250D02*X45300Y432500D01*
Y435800D02*X46800D01*
X47550Y437750D02*Y436550D01*
Y435050D02*Y433250D01*
Y435050D02*X46800Y435800D01*
X47550Y436550D02*X46800Y435800D01*
X55050Y438500D02*Y432500D01*
X54300D02*X55050Y433250D01*
X52800Y432500D02*X54300D01*
X52050Y433250D02*X52800Y432500D01*
X52050Y434750D02*Y433250D01*
Y434750D02*X52800Y435500D01*
X54300D01*
X55050Y434750D01*
G54D203*X56850Y437000D02*Y436850D01*
G54D202*Y434750D02*Y432500D01*
X59100Y437750D02*Y432500D01*
Y437750D02*X59850Y438500D01*
X60600D01*
X58350Y435500D02*X59850D01*
X62850Y437750D02*Y432500D01*
Y437750D02*X63600Y438500D01*
X64350D01*
X62100Y435500D02*X63600D01*
X66600Y432500D02*X68850D01*
X65850Y433250D02*X66600Y432500D01*
X65850Y434750D02*Y433250D01*
Y434750D02*X66600Y435500D01*
X68100D01*
X68850Y434750D01*
X65850Y434000D02*X68850D01*
Y434750D02*Y434000D01*
X71400Y434750D02*Y432500D01*
Y434750D02*X72150Y435500D01*
X73650D01*
X70650D02*X71400Y434750D01*
X76200Y432500D02*X78450D01*
X75450Y433250D02*X76200Y432500D01*
X75450Y434750D02*Y433250D01*
Y434750D02*X76200Y435500D01*
X77700D01*
X78450Y434750D01*
X75450Y434000D02*X78450D01*
Y434750D02*Y434000D01*
X81000Y434750D02*Y432500D01*
Y434750D02*X81750Y435500D01*
X82500D01*
X83250Y434750D01*
Y432500D01*
X80250Y435500D02*X81000Y434750D01*
X85800Y438500D02*Y433250D01*
X86550Y432500D01*
X85050Y436250D02*X86550D01*
X93750Y438500D02*Y432500D01*
X93000D02*X93750Y433250D01*
X91500Y432500D02*X93000D01*
X90750Y433250D02*X91500Y432500D01*
X90750Y434750D02*Y433250D01*
Y434750D02*X91500Y435500D01*
X93000D01*
X93750Y434750D01*
X96300D02*Y432500D01*
Y434750D02*X97050Y435500D01*
X98550D01*
X95550D02*X96300Y434750D01*
G54D203*X100350Y437000D02*Y436850D01*
G54D202*Y434750D02*Y432500D01*
X101850Y438500D02*Y433250D01*
X102600Y432500D01*
X104100Y438500D02*Y433250D01*
X104850Y432500D01*
X109800D02*X112050D01*
X112800Y433250D01*
X112050Y434000D02*X112800Y433250D01*
X109800Y434000D02*X112050D01*
X109050Y434750D02*X109800Y434000D01*
X109050Y434750D02*X109800Y435500D01*
X112050D01*
X112800Y434750D01*
X109050Y433250D02*X109800Y432500D01*
G54D203*X114600Y437000D02*Y436850D01*
G54D202*Y434750D02*Y432500D01*
X116100Y435500D02*X119100D01*
X116100Y432500D02*X119100Y435500D01*
X116100Y432500D02*X119100D01*
X121650D02*X123900D01*
X120900Y433250D02*X121650Y432500D01*
X120900Y434750D02*Y433250D01*
Y434750D02*X121650Y435500D01*
X123150D01*
X123900Y434750D01*
X120900Y434000D02*X123900D01*
Y434750D02*Y434000D01*
X126450Y432500D02*X128700D01*
X129450Y433250D01*
X128700Y434000D02*X129450Y433250D01*
X126450Y434000D02*X128700D01*
X125700Y434750D02*X126450Y434000D01*
X125700Y434750D02*X126450Y435500D01*
X128700D01*
X129450Y434750D01*
X125700Y433250D02*X126450Y432500D01*
X133950Y435500D02*Y433250D01*
X134700Y432500D01*
X136200D01*
X136950Y433250D01*
Y435500D02*Y433250D01*
X139500Y432500D02*X141750D01*
X142500Y433250D01*
X141750Y434000D02*X142500Y433250D01*
X139500Y434000D02*X141750D01*
X138750Y434750D02*X139500Y434000D01*
X138750Y434750D02*X139500Y435500D01*
X141750D01*
X142500Y434750D01*
X138750Y433250D02*X139500Y432500D01*
X145050D02*X147300D01*
X144300Y433250D02*X145050Y432500D01*
X144300Y434750D02*Y433250D01*
Y434750D02*X145050Y435500D01*
X146550D01*
X147300Y434750D01*
X144300Y434000D02*X147300D01*
Y434750D02*Y434000D01*
X152100Y438500D02*Y432500D01*
X151350D02*X152100Y433250D01*
X149850Y432500D02*X151350D01*
X149100Y433250D02*X149850Y432500D01*
X149100Y434750D02*Y433250D01*
Y434750D02*X149850Y435500D01*
X151350D01*
X152100Y434750D01*
G54D203*X156600Y437000D02*Y436850D01*
G54D202*Y434750D02*Y432500D01*
X158850Y434750D02*Y432500D01*
Y434750D02*X159600Y435500D01*
X160350D01*
X161100Y434750D01*
Y432500D01*
X158100Y435500D02*X158850Y434750D01*
X166350Y438500D02*Y433250D01*
X167100Y432500D01*
X165600Y436250D02*X167100D01*
X168600Y438500D02*Y432500D01*
Y434750D02*X169350Y435500D01*
X170850D01*
X171600Y434750D01*
Y432500D01*
G54D203*X173400Y437000D02*Y436850D01*
G54D202*Y434750D02*Y432500D01*
X175650D02*X177900D01*
X178650Y433250D01*
X177900Y434000D02*X178650Y433250D01*
X175650Y434000D02*X177900D01*
X174900Y434750D02*X175650Y434000D01*
X174900Y434750D02*X175650Y435500D01*
X177900D01*
X178650Y434750D01*
X174900Y433250D02*X175650Y432500D01*
X183150Y438500D02*Y433250D01*
X183900Y432500D01*
X187650Y435500D02*X188400Y434750D01*
X186150Y435500D02*X187650D01*
X185400Y434750D02*X186150Y435500D01*
X185400Y434750D02*Y433250D01*
X186150Y432500D01*
X188400Y435500D02*Y433250D01*
X189150Y432500D01*
X186150D02*X187650D01*
X188400Y433250D01*
X190950Y435500D02*Y433250D01*
X191700Y432500D01*
X193950Y435500D02*Y431000D01*
X193200Y430250D02*X193950Y431000D01*
X191700Y430250D02*X193200D01*
X190950Y431000D02*X191700Y430250D01*
Y432500D02*X193200D01*
X193950Y433250D01*
X195750Y434750D02*Y433250D01*
Y434750D02*X196500Y435500D01*
X198000D01*
X198750Y434750D01*
Y433250D01*
X198000Y432500D02*X198750Y433250D01*
X196500Y432500D02*X198000D01*
X195750Y433250D02*X196500Y432500D01*
X200550Y435500D02*Y433250D01*
X201300Y432500D01*
X202800D01*
X203550Y433250D01*
Y435500D02*Y433250D01*
X206100Y438500D02*Y433250D01*
X206850Y432500D01*
X205350Y436250D02*X206850D01*
X208350Y431000D02*X209850Y432500D01*
X214350Y437300D02*X215550Y438500D01*
Y432500D01*
X214350D02*X216600D01*
X218400Y434750D02*X221400Y438500D01*
X218400Y434750D02*X222150D01*
X221400Y438500D02*Y432500D01*
X223950Y438500D02*X226950D01*
X223950D02*Y435500D01*
X224700Y436250D01*
X226200D01*
X226950Y435500D01*
Y433250D01*
X226200Y432500D02*X226950Y433250D01*
X224700Y432500D02*X226200D01*
X223950Y433250D02*X224700Y432500D01*
X231450Y438500D02*Y432500D01*
Y434750D02*X232200Y435500D01*
X233700D01*
X234450Y434750D01*
Y432500D01*
X236250Y434750D02*Y433250D01*
Y434750D02*X237000Y435500D01*
X238500D01*
X239250Y434750D01*
Y433250D01*
X238500Y432500D02*X239250Y433250D01*
X237000Y432500D02*X238500D01*
X236250Y433250D02*X237000Y432500D01*
X241050Y438500D02*Y433250D01*
X241800Y432500D01*
X244050D02*X246300D01*
X243300Y433250D02*X244050Y432500D01*
X243300Y434750D02*Y433250D01*
Y434750D02*X244050Y435500D01*
X245550D01*
X246300Y434750D01*
X243300Y434000D02*X246300D01*
Y434750D02*Y434000D01*
X248850Y432500D02*X251100D01*
X251850Y433250D01*
X251100Y434000D02*X251850Y433250D01*
X248850Y434000D02*X251100D01*
X248100Y434750D02*X248850Y434000D01*
X248100Y434750D02*X248850Y435500D01*
X251100D01*
X251850Y434750D01*
X248100Y433250D02*X248850Y432500D01*
X257100Y438500D02*Y433250D01*
X257850Y432500D01*
X256350Y436250D02*X257850D01*
X259350Y434750D02*Y433250D01*
Y434750D02*X260100Y435500D01*
X261600D01*
X262350Y434750D01*
Y433250D01*
X261600Y432500D02*X262350Y433250D01*
X260100Y432500D02*X261600D01*
X259350Y433250D02*X260100Y432500D01*
X264900Y438500D02*Y433250D01*
X265650Y432500D01*
X264150Y436250D02*X265650D01*
X269400Y435500D02*X270150Y434750D01*
X267900Y435500D02*X269400D01*
X267150Y434750D02*X267900Y435500D01*
X267150Y434750D02*Y433250D01*
X267900Y432500D01*
X270150Y435500D02*Y433250D01*
X270900Y432500D01*
X267900D02*X269400D01*
X270150Y433250D01*
X272700Y438500D02*Y433250D01*
X273450Y432500D01*
G54D204*X20000Y340000D02*X393500D01*
X10000Y330000D02*Y36000D01*
X20000Y26000D02*X393500D01*
X403500Y330000D02*Y36000D01*
X10000Y26000D02*Y11000D01*
Y16000D02*X403500D01*
Y26000D02*Y11000D01*
Y26000D02*X418500D01*
X403500Y340000D02*X418500D01*
X10000Y16000D02*X15000Y13500D01*
X10000Y16000D02*X15000Y18500D01*
X403500Y16000D02*X398500Y18500D01*
X403500Y16000D02*X398500Y13500D01*
X416000Y26000D02*Y340000D01*
X413500Y335000D01*
X416000Y340000D02*X418500Y335000D01*
X416000Y26000D02*X418500Y31000D01*
X416000Y26000D02*X413500Y31000D01*
X393500Y26000D02*G75*G03X403500Y36000I0J10000D01*G01*
Y330000D02*G75*G03X393500Y340000I-10000J0D01*G01*
X20000D02*G75*G03X10000Y330000I0J-10000D01*G01*
Y36000D02*G75*G03X20000Y26000I10000J0D01*G01*
G54D205*X182500Y21500D02*X183000Y22000D01*
X184000D01*
X184500Y21500D01*
X184000Y18000D02*X184500Y18500D01*
X183000Y18000D02*X184000D01*
X182500Y18500D02*X183000Y18000D01*
Y20200D02*X184000D01*
X184500Y21500D02*Y20700D01*
Y19700D02*Y18500D01*
Y19700D02*X184000Y20200D01*
X184500Y20700D02*X184000Y20200D01*
X186200Y18000D02*X187700Y20000D01*
Y21500D02*Y20000D01*
X187200Y22000D02*X187700Y21500D01*
X186200Y22000D02*X187200D01*
X185700Y21500D02*X186200Y22000D01*
X185700Y21500D02*Y20500D01*
X186200Y20000D01*
X187700D01*
X188900Y21500D02*X189400Y22000D01*
X190400D01*
X190900Y21500D01*
X190400Y18000D02*X190900Y18500D01*
X189400Y18000D02*X190400D01*
X188900Y18500D02*X189400Y18000D01*
Y20200D02*X190400D01*
X190900Y21500D02*Y20700D01*
Y19700D02*Y18500D01*
Y19700D02*X190400Y20200D01*
X190900Y20700D02*X190400Y20200D01*
X192100Y22000D02*X194100D01*
X192100D02*Y20000D01*
X192600Y20500D01*
X193600D01*
X194100Y20000D01*
Y18500D01*
X193600Y18000D02*X194100Y18500D01*
X192600Y18000D02*X193600D01*
X192100Y18500D02*X192600Y18000D01*
X195800Y19500D02*Y18000D01*
Y19500D02*X196300Y20000D01*
X196800D01*
X197300Y19500D01*
Y18000D01*
Y19500D02*X197800Y20000D01*
X198300D01*
X198800Y19500D01*
Y18000D01*
X195300Y20000D02*X195800Y19500D01*
G54D206*X200000Y21000D02*Y20900D01*
G54D205*Y19500D02*Y18000D01*
X201000Y22000D02*Y18500D01*
X201500Y18000D01*
X204300Y18500D02*X207300Y21500D01*
X210800Y18000D02*X212300Y20000D01*
Y21500D02*Y20000D01*
X211800Y22000D02*X212300Y21500D01*
X210800Y22000D02*X211800D01*
X210300Y21500D02*X210800Y22000D01*
X210300Y21500D02*Y20500D01*
X210800Y20000D01*
X212300D01*
X214000Y18000D02*X215500Y20000D01*
Y21500D02*Y20000D01*
X215000Y22000D02*X215500Y21500D01*
X214000Y22000D02*X215000D01*
X213500Y21500D02*X214000Y22000D01*
X213500Y21500D02*Y20500D01*
X214000Y20000D01*
X215500D01*
X216700Y18000D02*X217200D01*
X218900D02*X220400Y20000D01*
Y21500D02*Y20000D01*
X219900Y22000D02*X220400Y21500D01*
X218900Y22000D02*X219900D01*
X218400Y21500D02*X218900Y22000D01*
X218400Y21500D02*Y20500D01*
X218900Y20000D01*
X220400D01*
X221600Y22000D02*X223600D01*
X221600D02*Y20000D01*
X222100Y20500D01*
X223100D01*
X223600Y20000D01*
Y18500D01*
X223100Y18000D02*X223600Y18500D01*
X222100Y18000D02*X223100D01*
X221600Y18500D02*X222100Y18000D01*
X225300Y19500D02*Y18000D01*
Y19500D02*X225800Y20000D01*
X226300D01*
X226800Y19500D01*
Y18000D01*
Y19500D02*X227300Y20000D01*
X227800D01*
X228300Y19500D01*
Y18000D01*
X224800Y20000D02*X225300Y19500D01*
X230000D02*Y18000D01*
Y19500D02*X230500Y20000D01*
X231000D01*
X231500Y19500D01*
Y18000D01*
Y19500D02*X232000Y20000D01*
X232500D01*
X233000Y19500D01*
Y18000D01*
X229500Y20000D02*X230000Y19500D01*
X410500Y160000D02*X410000Y160500D01*
Y161500D02*Y160500D01*
Y161500D02*X410500Y162000D01*
X414000Y161500D02*X413500Y162000D01*
X414000Y161500D02*Y160500D01*
X413500Y160000D02*X414000Y160500D01*
X411800Y161500D02*Y160500D01*
X410500Y162000D02*X411300D01*
X412300D02*X413500D01*
X412300D02*X411800Y161500D01*
X411300Y162000D02*X411800Y161500D01*
X410800Y163200D02*X410000Y164000D01*
X414000D01*
Y164700D02*Y163200D01*
X412500Y165900D02*X410000Y167900D01*
X412500Y168400D02*Y165900D01*
X410000Y167900D02*X414000D01*
X413500Y169600D02*X414000Y170100D01*
X410500Y169600D02*X413500D01*
X410500D02*X410000Y170100D01*
Y171100D02*Y170100D01*
Y171100D02*X410500Y171600D01*
X413500D01*
X414000Y171100D02*X413500Y171600D01*
X414000Y171100D02*Y170100D01*
X413000Y169600D02*X411000Y171600D01*
X412500Y173300D02*X414000D01*
X412500D02*X412000Y173800D01*
Y174300D02*Y173800D01*
Y174300D02*X412500Y174800D01*
X414000D01*
X412500D02*X412000Y175300D01*
Y175800D02*Y175300D01*
Y175800D02*X412500Y176300D01*
X414000D01*
X412000Y172800D02*X412500Y173300D01*
G54D206*X411000Y177500D02*X411100D01*
G54D205*X412500D02*X414000D01*
X410000Y178500D02*X413500D01*
X414000Y179000D01*
X413500Y181800D02*X410500Y184800D01*
X414000Y188300D02*X410000Y190300D01*
Y187800D01*
X414000Y192000D02*X412000Y193500D01*
X410500D02*X412000D01*
X410000Y193000D02*X410500Y193500D01*
X410000Y193000D02*Y192000D01*
X410500Y191500D02*X410000Y192000D01*
X410500Y191500D02*X411500D01*
X412000Y192000D01*
Y193500D02*Y192000D01*
X414000Y195200D02*Y194700D01*
Y196900D02*X410000Y198900D01*
Y196400D01*
Y201600D02*X410500Y202100D01*
X410000Y201600D02*Y200600D01*
X410500Y200100D02*X410000Y200600D01*
X410500Y200100D02*X413500D01*
X414000Y200600D01*
X411800Y201600D02*X412300Y202100D01*
X411800Y201600D02*Y200100D01*
X414000Y201600D02*Y200600D01*
Y201600D02*X413500Y202100D01*
X412300D02*X413500D01*
X412500Y203800D02*X414000D01*
X412500D02*X412000Y204300D01*
Y204800D02*Y204300D01*
Y204800D02*X412500Y205300D01*
X414000D01*
X412500D02*X412000Y205800D01*
Y206300D02*Y205800D01*
Y206300D02*X412500Y206800D01*
X414000D01*
X412000Y203300D02*X412500Y203800D01*
Y208500D02*X414000D01*
X412500D02*X412000Y209000D01*
Y209500D02*Y209000D01*
Y209500D02*X412500Y210000D01*
X414000D01*
X412500D02*X412000Y210500D01*
Y211000D02*Y210500D01*
Y211000D02*X412500Y211500D01*
X414000D01*
X412000Y208000D02*X412500Y208500D01*
G54D202*X128675Y-9500D02*X131675D01*
X132425Y-8750D01*
Y-6950D02*Y-8750D01*
X131675Y-6200D02*X132425Y-6950D01*
X129425Y-6200D02*X131675D01*
X129425Y-3500D02*Y-9500D01*
X128675Y-3500D02*X131675D01*
X132425Y-4250D01*
Y-5450D01*
X131675Y-6200D02*X132425Y-5450D01*
X134225Y-7250D02*Y-8750D01*
Y-7250D02*X134975Y-6500D01*
X136475D01*
X137225Y-7250D01*
Y-8750D01*
X136475Y-9500D02*X137225Y-8750D01*
X134975Y-9500D02*X136475D01*
X134225Y-8750D02*X134975Y-9500D01*
X141275Y-6500D02*X142025Y-7250D01*
X139775Y-6500D02*X141275D01*
X139025Y-7250D02*X139775Y-6500D01*
X139025Y-7250D02*Y-8750D01*
X139775Y-9500D01*
X142025Y-6500D02*Y-8750D01*
X142775Y-9500D01*
X139775D02*X141275D01*
X142025Y-8750D01*
X145325Y-7250D02*Y-9500D01*
Y-7250D02*X146075Y-6500D01*
X147575D01*
X144575D02*X145325Y-7250D01*
X152375Y-3500D02*Y-9500D01*
X151625D02*X152375Y-8750D01*
X150125Y-9500D02*X151625D01*
X149375Y-8750D02*X150125Y-9500D01*
X149375Y-7250D02*Y-8750D01*
Y-7250D02*X150125Y-6500D01*
X151625D01*
X152375Y-7250D01*
X156875D02*Y-8750D01*
Y-7250D02*X157625Y-6500D01*
X159125D01*
X159875Y-7250D01*
Y-8750D01*
X159125Y-9500D02*X159875Y-8750D01*
X157625Y-9500D02*X159125D01*
X156875Y-8750D02*X157625Y-9500D01*
X161675Y-6500D02*Y-8750D01*
X162425Y-9500D01*
X163925D01*
X164675Y-8750D01*
Y-6500D02*Y-8750D01*
X167225Y-3500D02*Y-8750D01*
X167975Y-9500D01*
X166475Y-5750D02*X167975D01*
X169475Y-3500D02*Y-8750D01*
X170225Y-9500D01*
G54D203*X171725Y-5000D02*Y-5150D01*
G54D202*Y-7250D02*Y-9500D01*
X173975Y-7250D02*Y-9500D01*
Y-7250D02*X174725Y-6500D01*
X175475D01*
X176225Y-7250D01*
Y-9500D01*
X173225Y-6500D02*X173975Y-7250D01*
X178775Y-9500D02*X181025D01*
X178025Y-8750D02*X178775Y-9500D01*
X178025Y-7250D02*Y-8750D01*
Y-7250D02*X178775Y-6500D01*
X180275D01*
X181025Y-7250D01*
X178025Y-8000D02*X181025D01*
Y-7250D02*Y-8000D01*
G54D203*X185525Y-5000D02*Y-5150D01*
G54D202*Y-7250D02*Y-9500D01*
X187775D02*X190025D01*
X190775Y-8750D01*
X190025Y-8000D02*X190775Y-8750D01*
X187775Y-8000D02*X190025D01*
X187025Y-7250D02*X187775Y-8000D01*
X187025Y-7250D02*X187775Y-6500D01*
X190025D01*
X190775Y-7250D01*
X187025Y-8750D02*X187775Y-9500D01*
X196025Y-3500D02*Y-8750D01*
X196775Y-9500D01*
X195275Y-5750D02*X196775D01*
X198275Y-3500D02*Y-9500D01*
Y-7250D02*X199025Y-6500D01*
X200525D01*
X201275Y-7250D01*
Y-9500D01*
X203825D02*X206075D01*
X203075Y-8750D02*X203825Y-9500D01*
X203075Y-7250D02*Y-8750D01*
Y-7250D02*X203825Y-6500D01*
X205325D01*
X206075Y-7250D01*
X203075Y-8000D02*X206075D01*
Y-7250D02*Y-8000D01*
X211325Y-6500D02*X213575D01*
X210575Y-7250D02*X211325Y-6500D01*
X210575Y-7250D02*Y-8750D01*
X211325Y-9500D01*
X213575D01*
X216125D02*X218375D01*
X215375Y-8750D02*X216125Y-9500D01*
X215375Y-7250D02*Y-8750D01*
Y-7250D02*X216125Y-6500D01*
X217625D01*
X218375Y-7250D01*
X215375Y-8000D02*X218375D01*
Y-7250D02*Y-8000D01*
X220925Y-7250D02*Y-9500D01*
Y-7250D02*X221675Y-6500D01*
X222425D01*
X223175Y-7250D01*
Y-9500D01*
X220175Y-6500D02*X220925Y-7250D01*
X225725Y-3500D02*Y-8750D01*
X226475Y-9500D01*
X224975Y-5750D02*X226475D01*
X228725Y-9500D02*X230975D01*
X227975Y-8750D02*X228725Y-9500D01*
X227975Y-7250D02*Y-8750D01*
Y-7250D02*X228725Y-6500D01*
X230225D01*
X230975Y-7250D01*
X227975Y-8000D02*X230975D01*
Y-7250D02*Y-8000D01*
X233525Y-7250D02*Y-9500D01*
Y-7250D02*X234275Y-6500D01*
X235775D01*
X232775D02*X233525Y-7250D01*
X237575Y-3500D02*Y-8750D01*
X238325Y-9500D01*
G54D203*X239825Y-5000D02*Y-5150D01*
G54D202*Y-7250D02*Y-9500D01*
X242075Y-7250D02*Y-9500D01*
Y-7250D02*X242825Y-6500D01*
X243575D01*
X244325Y-7250D01*
Y-9500D01*
X241325Y-6500D02*X242075Y-7250D01*
X246875Y-9500D02*X249125D01*
X246125Y-8750D02*X246875Y-9500D01*
X246125Y-7250D02*Y-8750D01*
Y-7250D02*X246875Y-6500D01*
X248375D01*
X249125Y-7250D01*
X246125Y-8000D02*X249125D01*
Y-7250D02*Y-8000D01*
X253625Y-7250D02*Y-8750D01*
Y-7250D02*X254375Y-6500D01*
X255875D01*
X256625Y-7250D01*
Y-8750D01*
X255875Y-9500D02*X256625Y-8750D01*
X254375Y-9500D02*X255875D01*
X253625Y-8750D02*X254375Y-9500D01*
X259175Y-4250D02*Y-9500D01*
Y-4250D02*X259925Y-3500D01*
X260675D01*
X258425Y-6500D02*X259925D01*
X265625Y-3500D02*Y-8750D01*
X266375Y-9500D01*
X264875Y-5750D02*X266375D01*
X267875Y-3500D02*Y-9500D01*
Y-7250D02*X268625Y-6500D01*
X270125D01*
X270875Y-7250D01*
Y-9500D01*
G54D203*X272675Y-5000D02*Y-5150D01*
G54D202*Y-7250D02*Y-9500D01*
X274925D02*X277175D01*
X277925Y-8750D01*
X277175Y-8000D02*X277925Y-8750D01*
X274925Y-8000D02*X277175D01*
X274175Y-7250D02*X274925Y-8000D01*
X274175Y-7250D02*X274925Y-6500D01*
X277175D01*
X277925Y-7250D01*
X274175Y-8750D02*X274925Y-9500D01*
X283175Y-7250D02*Y-11750D01*
X282425Y-6500D02*X283175Y-7250D01*
X283925Y-6500D01*
X285425D01*
X286175Y-7250D01*
Y-8750D01*
X285425Y-9500D02*X286175Y-8750D01*
X283925Y-9500D02*X285425D01*
X283175Y-8750D02*X283925Y-9500D01*
X290225Y-6500D02*X290975Y-7250D01*
X288725Y-6500D02*X290225D01*
X287975Y-7250D02*X288725Y-6500D01*
X287975Y-7250D02*Y-8750D01*
X288725Y-9500D01*
X290975Y-6500D02*Y-8750D01*
X291725Y-9500D01*
X288725D02*X290225D01*
X290975Y-8750D01*
X294275Y-3500D02*Y-8750D01*
X295025Y-9500D01*
X293525Y-5750D02*X295025D01*
X296525Y-3500D02*Y-9500D01*
Y-7250D02*X297275Y-6500D01*
X298775D01*
X299525Y-7250D01*
Y-9500D01*
X200750Y378500D02*Y372500D01*
X202700Y378500D02*X203750Y377450D01*
Y373550D01*
X202700Y372500D02*X203750Y373550D01*
X200000Y372500D02*X202700D01*
X200000Y378500D02*X202700D01*
X207800Y375500D02*X208550Y374750D01*
X206300Y375500D02*X207800D01*
X205550Y374750D02*X206300Y375500D01*
X205550Y374750D02*Y373250D01*
X206300Y372500D01*
X208550Y375500D02*Y373250D01*
X209300Y372500D01*
X206300D02*X207800D01*
X208550Y373250D01*
X211850Y378500D02*Y373250D01*
X212600Y372500D01*
X211100Y376250D02*X212600D01*
X214850Y372500D02*X217100D01*
X214100Y373250D02*X214850Y372500D01*
X214100Y374750D02*Y373250D01*
Y374750D02*X214850Y375500D01*
X216350D01*
X217100Y374750D01*
X214100Y374000D02*X217100D01*
Y374750D02*Y374000D01*
X218900Y376250D02*X219650D01*
X218900Y374750D02*X219650D01*
X227150Y378500D02*X227900Y377750D01*
X224900Y378500D02*X227150D01*
X224150Y377750D02*X224900Y378500D01*
X224150Y377750D02*Y376250D01*
X224900Y375500D01*
X227150D01*
X227900Y374750D01*
Y373250D01*
X227150Y372500D02*X227900Y373250D01*
X224900Y372500D02*X227150D01*
X224150Y373250D02*X224900Y372500D01*
X229700Y375500D02*Y373250D01*
X230450Y372500D01*
X231950D01*
X232700Y373250D01*
Y375500D02*Y373250D01*
X235250Y374750D02*Y372500D01*
Y374750D02*X236000Y375500D01*
X236750D01*
X237500Y374750D01*
Y372500D01*
X234500Y375500D02*X235250Y374750D01*
X242000Y373250D02*X242750Y372500D01*
X242000Y377750D02*Y373250D01*
Y377750D02*X242750Y378500D01*
X244250D01*
X245000Y377750D01*
Y373250D01*
X244250Y372500D02*X245000Y373250D01*
X242750Y372500D02*X244250D01*
X242000Y374000D02*X245000Y377000D01*
X246800Y373250D02*X247550Y372500D01*
X246800Y374450D02*Y373250D01*
Y374450D02*X247850Y375500D01*
X248750D01*
X249800Y374450D01*
Y373250D01*
X249050Y372500D02*X249800Y373250D01*
X247550Y372500D02*X249050D01*
X246800Y376550D02*X247850Y375500D01*
X246800Y377750D02*Y376550D01*
Y377750D02*X247550Y378500D01*
X249050D01*
X249800Y377750D01*
Y376550D01*
X248750Y375500D02*X249800Y376550D01*
X257300Y378500D02*X258050Y377750D01*
X255050Y378500D02*X257300D01*
X254300Y377750D02*X255050Y378500D01*
X254300Y377750D02*Y376250D01*
X255050Y375500D01*
X257300D01*
X258050Y374750D01*
Y373250D01*
X257300Y372500D02*X258050Y373250D01*
X255050Y372500D02*X257300D01*
X254300Y373250D02*X255050Y372500D01*
X260600D02*X262850D01*
X259850Y373250D02*X260600Y372500D01*
X259850Y374750D02*Y373250D01*
Y374750D02*X260600Y375500D01*
X262100D01*
X262850Y374750D01*
X259850Y374000D02*X262850D01*
Y374750D02*Y374000D01*
X265400Y374750D02*Y370250D01*
X264650Y375500D02*X265400Y374750D01*
X266150Y375500D01*
X267650D01*
X268400Y374750D01*
Y373250D01*
X267650Y372500D02*X268400Y373250D01*
X266150Y372500D02*X267650D01*
X265400Y373250D02*X266150Y372500D01*
X272900Y377750D02*X273650Y378500D01*
X275900D01*
X276650Y377750D01*
Y376250D01*
X272900Y372500D02*X276650Y376250D01*
X272900Y372500D02*X276650D01*
X278450Y373250D02*X279200Y372500D01*
X278450Y377750D02*Y373250D01*
Y377750D02*X279200Y378500D01*
X280700D01*
X281450Y377750D01*
Y373250D01*
X280700Y372500D02*X281450Y373250D01*
X279200Y372500D02*X280700D01*
X278450Y374000D02*X281450Y377000D01*
X283250Y377300D02*X284450Y378500D01*
Y372500D01*
X283250D02*X285500D01*
X287300Y377750D02*X288050Y378500D01*
X289550D01*
X290300Y377750D01*
X289550Y372500D02*X290300Y373250D01*
X288050Y372500D02*X289550D01*
X287300Y373250D02*X288050Y372500D01*
Y375800D02*X289550D01*
X290300Y377750D02*Y376550D01*
Y375050D02*Y373250D01*
Y375050D02*X289550Y375800D01*
X290300Y376550D02*X289550Y375800D01*
X294800Y377300D02*X296000Y378500D01*
Y372500D01*
X294800D02*X297050D01*
X298850Y373250D02*X299600Y372500D01*
X298850Y377750D02*Y373250D01*
Y377750D02*X299600Y378500D01*
X301100D01*
X301850Y377750D01*
Y373250D01*
X301100Y372500D02*X301850Y373250D01*
X299600Y372500D02*X301100D01*
X298850Y374000D02*X301850Y377000D01*
X303650Y376250D02*X304400D01*
X303650Y374750D02*X304400D01*
X306200Y378500D02*X309200D01*
X306200D02*Y375500D01*
X306950Y376250D01*
X308450D01*
X309200Y375500D01*
Y373250D01*
X308450Y372500D02*X309200Y373250D01*
X306950Y372500D02*X308450D01*
X306200Y373250D02*X306950Y372500D01*
X311750D02*X314750Y378500D01*
X311000D02*X314750D01*
X316550Y376250D02*X317300D01*
X316550Y374750D02*X317300D01*
X319100Y378500D02*X322100D01*
X319100D02*Y375500D01*
X319850Y376250D01*
X321350D01*
X322100Y375500D01*
Y373250D01*
X321350Y372500D02*X322100Y373250D01*
X319850Y372500D02*X321350D01*
X319100Y373250D02*X319850Y372500D01*
X323900Y377750D02*X324650Y378500D01*
X326150D01*
X326900Y377750D01*
X326150Y372500D02*X326900Y373250D01*
X324650Y372500D02*X326150D01*
X323900Y373250D02*X324650Y372500D01*
Y375800D02*X326150D01*
X326900Y377750D02*Y376550D01*
Y375050D02*Y373250D01*
Y375050D02*X326150Y375800D01*
X326900Y376550D02*X326150Y375800D01*
X332150Y378500D02*Y372500D01*
X331400Y378500D02*X334400D01*
X335150Y377750D01*
Y376250D01*
X334400Y375500D02*X335150Y376250D01*
X332150Y375500D02*X334400D01*
X336950Y378500D02*Y372500D01*
Y378500D02*X339200Y375500D01*
X341450Y378500D01*
Y372500D01*
X348950Y378500D02*X349700Y377750D01*
X346700Y378500D02*X348950D01*
X345950Y377750D02*X346700Y378500D01*
X345950Y377750D02*Y373250D01*
X346700Y372500D01*
X348950D01*
X349700Y373250D01*
Y374750D02*Y373250D01*
X348950Y375500D02*X349700Y374750D01*
X347450Y375500D02*X348950D01*
X351500Y378500D02*Y372500D01*
Y378500D02*X353750Y375500D01*
X356000Y378500D01*
Y372500D01*
X357800Y378500D02*X360800D01*
X359300D02*Y372500D01*
X365300Y378500D02*Y373250D01*
X366050Y372500D01*
X367550D01*
X368300Y373250D01*
Y378500D02*Y373250D01*
X370100Y378500D02*X373100D01*
X371600D02*Y372500D01*
X375950D02*X377900D01*
X374900Y373550D02*X375950Y372500D01*
X374900Y377450D02*Y373550D01*
Y377450D02*X375950Y378500D01*
X377900D01*
X200000Y392000D02*Y387500D01*
Y392000D02*X201050Y393500D01*
X202700D01*
X203750Y392000D01*
Y387500D01*
X200000Y390500D02*X203750D01*
X205550D02*Y388250D01*
X206300Y387500D01*
X207800D01*
X208550Y388250D01*
Y390500D02*Y388250D01*
X211100Y393500D02*Y388250D01*
X211850Y387500D01*
X210350Y391250D02*X211850D01*
X213350Y393500D02*Y387500D01*
Y389750D02*X214100Y390500D01*
X215600D01*
X216350Y389750D01*
Y387500D01*
X218150Y389750D02*Y388250D01*
Y389750D02*X218900Y390500D01*
X220400D01*
X221150Y389750D01*
Y388250D01*
X220400Y387500D02*X221150Y388250D01*
X218900Y387500D02*X220400D01*
X218150Y388250D02*X218900Y387500D01*
X223700Y389750D02*Y387500D01*
Y389750D02*X224450Y390500D01*
X225950D01*
X222950D02*X223700Y389750D01*
X227750Y391250D02*X228500D01*
X227750Y389750D02*X228500D01*
X233000Y387500D02*X236000D01*
X236750Y388250D01*
Y390050D02*Y388250D01*
X236000Y390800D02*X236750Y390050D01*
X233750Y390800D02*X236000D01*
X233750Y393500D02*Y387500D01*
X233000Y393500D02*X236000D01*
X236750Y392750D01*
Y391550D01*
X236000Y390800D02*X236750Y391550D01*
X239300Y387500D02*X241550D01*
X238550Y388250D02*X239300Y387500D01*
X238550Y389750D02*Y388250D01*
Y389750D02*X239300Y390500D01*
X240800D01*
X241550Y389750D01*
X238550Y389000D02*X241550D01*
Y389750D02*Y389000D01*
X244100Y389750D02*Y387500D01*
Y389750D02*X244850Y390500D01*
X246350D01*
X243350D02*X244100Y389750D01*
X248900Y393500D02*Y388250D01*
X249650Y387500D01*
X248150Y391250D02*X249650D01*
X251150Y393500D02*Y387500D01*
Y389750D02*X251900Y390500D01*
X253400D01*
X254150Y389750D01*
Y387500D01*
X255950Y389750D02*Y388250D01*
Y389750D02*X256700Y390500D01*
X258200D01*
X258950Y389750D01*
Y388250D01*
X258200Y387500D02*X258950Y388250D01*
X256700Y387500D02*X258200D01*
X255950Y388250D02*X256700Y387500D01*
X266450Y393500D02*X267200Y392750D01*
X264200Y393500D02*X266450D01*
X263450Y392750D02*X264200Y393500D01*
X263450Y392750D02*Y391250D01*
X264200Y390500D01*
X266450D01*
X267200Y389750D01*
Y388250D01*
X266450Y387500D02*X267200Y388250D01*
X264200Y387500D02*X266450D01*
X263450Y388250D02*X264200Y387500D01*
X269750Y393500D02*Y388250D01*
X270500Y387500D01*
X269000Y391250D02*X270500D01*
X272000Y390500D02*Y388250D01*
X272750Y387500D01*
X274250D01*
X275000Y388250D01*
Y390500D02*Y388250D01*
X276800Y393500D02*Y388250D01*
X277550Y387500D01*
X279800Y393500D02*Y388250D01*
X280550Y387500D01*
X279050Y391250D02*X280550D01*
G54D203*X282050Y392000D02*Y391850D01*
G54D202*Y389750D02*Y387500D01*
X284300D02*X286550D01*
X283550Y388250D02*X284300Y387500D01*
X283550Y389750D02*Y388250D01*
Y389750D02*X284300Y390500D01*
X285800D01*
X286550Y389750D01*
X283550Y389000D02*X286550D01*
Y389750D02*Y389000D01*
X289100Y389750D02*Y387500D01*
Y389750D02*X289850Y390500D01*
X290600D01*
X291350Y389750D01*
Y387500D01*
X288350Y390500D02*X289100Y389750D01*
X293900Y387500D02*X296150D01*
X296900Y388250D01*
X296150Y389000D02*X296900Y388250D01*
X293900Y389000D02*X296150D01*
X293150Y389750D02*X293900Y389000D01*
X293150Y389750D02*X293900Y390500D01*
X296150D01*
X296900Y389750D01*
X293150Y388250D02*X293900Y387500D01*
X200000Y408500D02*X203000D01*
X201500D02*Y402500D01*
G54D203*X204800Y407000D02*Y406850D01*
G54D202*Y404750D02*Y402500D01*
X207050Y408500D02*Y403250D01*
X207800Y402500D01*
X206300Y406250D02*X207800D01*
X209300Y408500D02*Y403250D01*
X210050Y402500D01*
X212300D02*X214550D01*
X211550Y403250D02*X212300Y402500D01*
X211550Y404750D02*Y403250D01*
Y404750D02*X212300Y405500D01*
X213800D01*
X214550Y404750D01*
X211550Y404000D02*X214550D01*
Y404750D02*Y404000D01*
X216350Y406250D02*X217100D01*
X216350Y404750D02*X217100D01*
X221600Y408500D02*Y402500D01*
Y408500D02*X225350Y402500D01*
Y408500D02*Y402500D01*
X227150Y404750D02*Y403250D01*
Y404750D02*X227900Y405500D01*
X229400D01*
X230150Y404750D01*
Y403250D01*
X229400Y402500D02*X230150Y403250D01*
X227900Y402500D02*X229400D01*
X227150Y403250D02*X227900Y402500D01*
X232700Y404750D02*Y402500D01*
Y404750D02*X233450Y405500D01*
X234200D01*
X234950Y404750D01*
Y402500D01*
Y404750D02*X235700Y405500D01*
X236450D01*
X237200Y404750D01*
Y402500D01*
X231950Y405500D02*X232700Y404750D01*
X239750Y402500D02*X242000D01*
X239000Y403250D02*X239750Y402500D01*
X239000Y404750D02*Y403250D01*
Y404750D02*X239750Y405500D01*
X241250D01*
X242000Y404750D01*
X239000Y404000D02*X242000D01*
Y404750D02*Y404000D01*
X244550Y405500D02*X246800D01*
X243800Y404750D02*X244550Y405500D01*
X243800Y404750D02*Y403250D01*
X244550Y402500D01*
X246800D01*
X248600Y408500D02*Y402500D01*
Y404750D02*X249350Y405500D01*
X250850D01*
X251600Y404750D01*
Y402500D01*
X256100Y405500D02*X259100D01*
X263600Y408500D02*Y402500D01*
Y408500D02*X266600D01*
X263600Y405800D02*X265850D01*
X270650Y405500D02*X271400Y404750D01*
X269150Y405500D02*X270650D01*
X268400Y404750D02*X269150Y405500D01*
X268400Y404750D02*Y403250D01*
X269150Y402500D01*
X271400Y405500D02*Y403250D01*
X272150Y402500D01*
X269150D02*X270650D01*
X271400Y403250D01*
X273950Y408500D02*Y402500D01*
Y403250D02*X274700Y402500D01*
X276200D01*
X276950Y403250D01*
Y404750D02*Y403250D01*
X276200Y405500D02*X276950Y404750D01*
X274700Y405500D02*X276200D01*
X273950Y404750D02*X274700Y405500D01*
X279500Y404750D02*Y402500D01*
Y404750D02*X280250Y405500D01*
X281750D01*
X278750D02*X279500Y404750D01*
G54D203*X283550Y407000D02*Y406850D01*
G54D202*Y404750D02*Y402500D01*
X285800Y405500D02*X288050D01*
X285050Y404750D02*X285800Y405500D01*
X285050Y404750D02*Y403250D01*
X285800Y402500D01*
X288050D01*
X292100Y405500D02*X292850Y404750D01*
X290600Y405500D02*X292100D01*
X289850Y404750D02*X290600Y405500D01*
X289850Y404750D02*Y403250D01*
X290600Y402500D01*
X292850Y405500D02*Y403250D01*
X293600Y402500D01*
X290600D02*X292100D01*
X292850Y403250D01*
X296150Y408500D02*Y403250D01*
X296900Y402500D01*
X295400Y406250D02*X296900D01*
G54D203*X298400Y407000D02*Y406850D01*
G54D202*Y404750D02*Y402500D01*
X299900Y404750D02*Y403250D01*
Y404750D02*X300650Y405500D01*
X302150D01*
X302900Y404750D01*
Y403250D01*
X302150Y402500D02*X302900Y403250D01*
X300650Y402500D02*X302150D01*
X299900Y403250D02*X300650Y402500D01*
X305450Y404750D02*Y402500D01*
Y404750D02*X306200Y405500D01*
X306950D01*
X307700Y404750D01*
Y402500D01*
X304700Y405500D02*X305450Y404750D01*
X312950Y408500D02*Y402500D01*
X314900Y408500D02*X315950Y407450D01*
Y403550D01*
X314900Y402500D02*X315950Y403550D01*
X312200Y402500D02*X314900D01*
X312200Y408500D02*X314900D01*
X318500Y404750D02*Y402500D01*
Y404750D02*X319250Y405500D01*
X320750D01*
X317750D02*X318500Y404750D01*
X324800Y405500D02*X325550Y404750D01*
X323300Y405500D02*X324800D01*
X322550Y404750D02*X323300Y405500D01*
X322550Y404750D02*Y403250D01*
X323300Y402500D01*
X325550Y405500D02*Y403250D01*
X326300Y402500D01*
X323300D02*X324800D01*
X325550Y403250D01*
X328100Y405500D02*Y403250D01*
X328850Y402500D01*
X329600D01*
X330350Y403250D01*
Y405500D02*Y403250D01*
X331100Y402500D01*
X331850D01*
X332600Y403250D01*
Y405500D02*Y403250D01*
G54D203*X334400Y407000D02*Y406850D01*
G54D202*Y404750D02*Y402500D01*
X336650Y404750D02*Y402500D01*
Y404750D02*X337400Y405500D01*
X338150D01*
X338900Y404750D01*
Y402500D01*
X335900Y405500D02*X336650Y404750D01*
X342950Y405500D02*X343700Y404750D01*
X341450Y405500D02*X342950D01*
X340700Y404750D02*X341450Y405500D01*
X340700Y404750D02*Y403250D01*
X341450Y402500D01*
X342950D01*
X343700Y403250D01*
X340700Y401000D02*X341450Y400250D01*
X342950D01*
X343700Y401000D01*
Y405500D02*Y401000D01*
M02*
